# Tiled2Unity generated file. Do not modify by hand.
# Wavefront file for 'untitled_mesh_0003.obj'

# Vertices (Count = 112)
v -19 -1 0
v -20 -1 0
v -20 0 0
v -19 0 0
v -19 -10 0
v -20 -10 0
v -20 -9 0
v -19 -9 0
v -21 -11 0
v -22 -11 0
v -22 -10 0
v -21 -10 0
v -18 -13 0
v -19 -13 0
v -19 -12 0
v -18 -12 0
v -16 -16 0
v -17 -16 0
v -17 -15 0
v -16 -15 0
v -22 -16 0
v -23 -16 0
v -23 -15 0
v -22 -15 0
v -21 -17 0
v -22 -17 0
v -22 -16 0
v -21 -16 0
v -18 -18 0
v -19 -18 0
v -19 -17 0
v -18 -17 0
v 0 -19 0
v -1 -19 0
v -1 -18 0
v 0 -18 0
v -7 -19 0
v -8 -19 0
v -8 -18 0
v -7 -18 0
v -21 -19 0
v -22 -19 0
v -22 -18 0
v -21 -18 0
v -39 -20 0
v -40 -20 0
v -40 -19 0
v -39 -19 0
v -12 -21 0
v -13 -21 0
v -13 -20 0
v -12 -20 0
v -29 -21 0
v -30 -21 0
v -30 -20 0
v -29 -20 0
v -35 -21 0
v -36 -21 0
v -36 -20 0
v -35 -20 0
v -17 -22 0
v -18 -22 0
v -18 -21 0
v -17 -21 0
v -35 -22 0
v -36 -22 0
v -36 -21 0
v -35 -21 0
v -39 -22 0
v -40 -22 0
v -40 -21 0
v -39 -21 0
v -18 -23 0
v -19 -23 0
v -19 -22 0
v -18 -22 0
v -23 -26 0
v -24 -26 0
v -24 -25 0
v -23 -25 0
v -18 -28 0
v -19 -28 0
v -19 -27 0
v -18 -27 0
v -24 -28 0
v -25 -28 0
v -25 -27 0
v -24 -27 0
v -23 -29 0
v -24 -29 0
v -24 -28 0
v -23 -28 0
v -19 -31 0
v -20 -31 0
v -20 -30 0
v -19 -30 0
v -23 -31 0
v -24 -31 0
v -24 -30 0
v -23 -30 0
v -20 -36 0
v -21 -36 0
v -21 -35 0
v -20 -35 0
v -18 -40 0
v -19 -40 0
v -19 -39 0
v -18 -39 0
v -20 -40 0
v -21 -40 0
v -21 -39 0
v -20 -39 0

# Texture cooridinates (Count = 9)
vt 0.05 0.5
vt 0.1 0.5
vt 0.1 0.55
vt 0.05 0.55
vt 0 0.5
vt 0 0.55
vt 0.05 0.6
vt 0 0.6
vt 0.1 0.6

# Normal
vn 0 0 -1

# Mesh description
g untitled_mesh_0003

# Faces
f 1/1/1 2/2/1 3/3/1 4/4/1
f 5/5/1 6/1/1 7/4/1 8/6/1
f 9/6/1 10/4/1 11/7/1 12/8/1
f 13/4/1 14/3/1 15/9/1 16/7/1
f 17/1/1 18/2/1 19/3/1 20/4/1
f 21/1/1 22/2/1 23/3/1 24/4/1
f 25/4/1 26/3/1 27/9/1 28/7/1
f 29/6/1 30/4/1 31/7/1 32/8/1
f 33/5/1 34/1/1 35/4/1 36/6/1
f 37/1/1 38/2/1 39/3/1 40/4/1
f 41/5/1 42/1/1 43/4/1 44/6/1
f 45/4/1 46/3/1 47/9/1 48/7/1
f 49/4/1 50/3/1 51/9/1 52/7/1
f 53/4/1 54/3/1 55/9/1 56/7/1
f 57/6/1 58/4/1 59/7/1 60/8/1
f 61/5/1 62/1/1 63/4/1 64/6/1
f 65/1/1 66/2/1 67/3/1 68/4/1
f 69/5/1 70/1/1 71/4/1 72/6/1
f 73/1/1 74/2/1 75/3/1 76/4/1
f 77/6/1 78/4/1 79/7/1 80/8/1
f 81/5/1 82/1/1 83/4/1 84/6/1
f 85/1/1 86/2/1 87/3/1 88/4/1
f 89/4/1 90/3/1 91/9/1 92/7/1
f 93/6/1 94/4/1 95/7/1 96/8/1
f 97/1/1 98/2/1 99/3/1 100/4/1
f 101/6/1 102/4/1 103/7/1 104/8/1
f 105/4/1 106/3/1 107/9/1 108/7/1
f 109/5/1 110/1/1 111/4/1 112/6/1

